<?xml version="1.0" encoding="utf-8"?>
<!-- Generator: Adobe Illustrator 21.1.0, SVG Export Plug-In . SVG Version: 6.00 Build 0)  -->
<svg version="1.1" id="Layer_1" xmlns="http://www.w3.org/2000/svg" xmlns:xlink="http://www.w3.org/1999/xlink" x="0px" y="0px"
	 viewBox="0 0 81 81.6" style="enable-background:new 0 0 81 81.6;" xml:space="preserve">
<path d="M52.3,56.7l-12-3.9c-0.2-0.1-0.4-0.1-0.6,0l-12,3.9c-0.4,0.1-0.7,0.5-0.7,0.9v5.6c0.1,5.7,2.7,11.1,7.2,14.6l5.2,3.5
	c0.2,0.1,0.4,0.2,0.7,0.2c0.2,0,0.5-0.1,0.7-0.2l5.2-3.6c4.5-3.5,7.1-8.9,7.2-14.6v-5.6C53,57.2,52.7,56.8,52.3,56.7z M40.4,79.7
	L40.4,79.7z M51,63.3c-0.1,5.1-2.4,9.8-6.4,13L40,79.4l-4.6-3.2c-4-3.2-6.3-7.9-6.4-13v-4.9l11-3.6l11,3.6L51,63.3z"/>
<polygon points="36.3,65.1 34.5,66.9 39.3,71.7 46.6,64.4 44.8,62.6 39.3,68.1 "/>
<circle cx="65.6" cy="35.3" r="4.3"/>
<path d="M62.6,41C60,41,58,43.2,58,45.7c0,0,0,0,0,0V51h15v-5.2c0-2.6-1.6-4.7-4.2-4.7L62.6,41z"/>
<ellipse transform="matrix(1.919872e-03 -1 1 1.919872e-03 -19.7161 51.0366)" cx="15.7" cy="35.4" rx="4.3" ry="4.3"/>
<path d="M23,45.8c0-2.6-1.6-4.7-4.1-4.7h-6.3C10,41.1,8,43.2,8,45.8V51h15V45.8z"/>
<path d="M65,22.4l-16,9.2v18.4l16,9.2l16-9.2V31.7L65,22.4z M79,49l-14,8l-14-8.1V32.8l14-8l14,8.1V49z"/>
<path d="M32,49.9V31.4l-16-9.3L0,31.4v18.4l16,9.2L32,49.9z M2,32.5l14-8l14,8.1v16.1l-14,8L2,48.7V32.5z"/>
<ellipse transform="matrix(1.919872e-03 -1 1 1.919872e-03 -4.1368 36.1072)" cx="16" cy="20.1" rx="0.9" ry="0.9"/>
<ellipse transform="matrix(1.919872e-03 -1 1 1.919872e-03 -0.4798 32.4772)" cx="16" cy="16.5" rx="0.9" ry="0.9"/>
<ellipse transform="matrix(2.094442e-03 -1 1 2.094442e-03 3.1751 28.8534)" cx="16" cy="12.8" rx="0.9" ry="0.9"/>
<ellipse transform="matrix(2.094442e-03 -1 1 2.094442e-03 6.4351 32.1402)" cx="19.3" cy="12.8" rx="0.9" ry="0.9"/>
<ellipse transform="matrix(2.094442e-03 -1 1 2.094442e-03 10.0651 35.7979)" cx="23" cy="12.9" rx="0.9" ry="0.9"/>
<ellipse transform="matrix(2.094442e-03 -1 1 2.094442e-03 13.715 39.4555)" cx="26.6" cy="12.9" rx="0.9" ry="0.9"/>
<ellipse transform="matrix(1.919872e-03 -1 1 1.919872e-03 17.3372 43.0946)" cx="30.3" cy="12.9" rx="0.9" ry="0.9"/>
<ellipse transform="matrix(2.094442e-03 -1 1 2.094442e-03 37.4149 63.3054)" cx="50.4" cy="12.9" rx="0.9" ry="0.9"/>
<ellipse transform="matrix(2.094442e-03 -1 1 2.094442e-03 41.0449 66.943)" cx="54.1" cy="12.9" rx="0.9" ry="0.9"/>
<ellipse transform="matrix(2.094442e-03 -1 1 2.094442e-03 44.6849 70.6107)" cx="57.7" cy="12.9" rx="0.9" ry="0.9"/>
<ellipse transform="matrix(2.094442e-03 -1 1 2.094442e-03 48.3048 74.2783)" cx="61.4" cy="12.9" rx="0.9" ry="0.9"/>
<ellipse transform="matrix(2.094442e-03 -1 1 2.094442e-03 44.3695 84.9253)" cx="64.7" cy="20.2" rx="0.9" ry="0.9"/>
<ellipse transform="matrix(2.094442e-03 -1 1 2.094442e-03 48.0172 81.3053)" cx="64.7" cy="16.6" rx="0.9" ry="0.9"/>
<ellipse transform="matrix(2.094442e-03 -1 1 2.094442e-03 51.6848 77.6654)" cx="64.8" cy="12.9" rx="0.9" ry="0.9"/>
<ellipse transform="matrix(2.094442e-03 -1 1 2.094442e-03 3.4141 125.4749)" cx="64.6" cy="61" rx="0.9" ry="0.9"/>
<ellipse transform="matrix(2.094442e-03 -1 1 2.094442e-03 -0.2336 129.0949)" cx="64.6" cy="64.7" rx="0.9" ry="0.9"/>
<ellipse transform="matrix(1.919872e-03 -1 1 1.919872e-03 -3.8794 132.7303)" cx="64.6" cy="68.3" rx="0.9" ry="0.9"/>
<ellipse transform="matrix(2.094442e-03 -1 1 2.094442e-03 -7.1612 129.448)" cx="61.3" cy="68.3" rx="0.9" ry="0.9"/>
<ellipse transform="matrix(2.094442e-03 -1 1 2.094442e-03 -10.8111 125.7903)" cx="57.6" cy="68.3" rx="0.9" ry="0.9"/>
<ellipse transform="matrix(2.094442e-03 -1 1 2.094442e-03 -14.4411 122.1327)" cx="54" cy="68.3" rx="0.9" ry="0.9"/>
<ellipse transform="matrix(1.919872e-03 -1 1 1.919872e-03 -41.7592 94.6173)" cx="26.5" cy="68.2" rx="0.9" ry="0.9"/>
<ellipse transform="matrix(2.094442e-03 -1 1 2.094442e-03 -45.4009 90.9676)" cx="22.9" cy="68.2" rx="0.9" ry="0.9"/>
<ellipse transform="matrix(2.094442e-03 -1 1 2.094442e-03 -49.0509 87.3099)" cx="19.2" cy="68.2" rx="0.9" ry="0.9"/>
<ellipse transform="matrix(1.919872e-03 -1 1 1.919872e-03 -45.0951 76.6468)" cx="15.8" cy="60.9" rx="0.9" ry="0.9"/>
<ellipse transform="matrix(2.094442e-03 -1 1 2.094442e-03 -48.7532 80.2928)" cx="15.9" cy="64.6" rx="0.9" ry="0.9"/>
<ellipse transform="matrix(2.094442e-03 -1 1 2.094442e-03 -52.4109 83.9228)" cx="15.8" cy="68.2" rx="0.9" ry="0.9"/>
<ellipse transform="matrix(2.094442e-03 -1 1 2.094442e-03 4.236 86.2747)" cx="45.3" cy="41" rx="0.9" ry="0.9"/>
<ellipse transform="matrix(1.919872e-03 -1 1 1.919872e-03 0.6031 82.6164)" cx="41.7" cy="41" rx="0.9" ry="0.9"/>
<ellipse transform="matrix(2.094442e-03 -1 1 2.094442e-03 -3.0339 78.9694)" cx="38.1" cy="41" rx="0.9" ry="0.9"/>
<ellipse transform="matrix(2.094442e-03 -1 1 2.094442e-03 -6.3939 75.5623)" cx="34.7" cy="41" rx="0.9" ry="0.9"/>
<path d="M32.8,24h15.4c0.4,0,0.8-0.4,0.8-0.8V8.8C49,8.4,48.6,8,48.2,8H48V7.5C48,3.4,44.7,0,40.6,0l0,0c-4.1,0-7.5,3.4-7.5,7.5V8
	h-0.2c-0.4,0-0.8,0.4-0.8,0.8v14.4C32.1,23.6,32.4,24,32.8,24z M42,15.5V20h-3.2l0.1-4.6c-0.6-0.4-0.9-1.1-0.9-1.8
	c0-1.2,0.9-2.2,2.1-2.4c1.3-0.3,2.6,0.6,2.9,1.9c0,0.1,0,0.3,0,0.4C43,14.4,42.7,15.1,42,15.5z M35,7.5c0-3,2.4-5.5,5.5-5.5
	c0,0,0.1,0,0.1,0l0,0c3,0,5.5,2.5,5.5,5.5c0,0,0,0,0,0V8h-11L35,7.5z"/>
</svg>
