<?xml version="1.0" encoding="utf-8"?>
<!-- Generator: Adobe Illustrator 21.1.0, SVG Export Plug-In . SVG Version: 6.00 Build 0)  -->
<svg version="1.1" id="Layer_1" xmlns="http://www.w3.org/2000/svg" xmlns:xlink="http://www.w3.org/1999/xlink" x="0px" y="0px"
	 viewBox="0 0 91 80.8" style="enable-background:new 0 0 91 80.8;" xml:space="preserve">
<style type="text/css">
	.st0{fill:#4578CE;}
</style>
<g transform="translate(-4.5, -9.599)">
	<path class="st0" d="M68.5,9.6c3.4,0.4,2,0,4.3,1c3.6,2.1,4.8,6.7,2.7,10.2c-1.3,1.7-0.5,0.9-2.4,2.3c1.9,3.4,3.9,6.7,5.8,10.1
		c1.9,3.4,3.9,6.7,5.8,10.1c2.2-0.9,1.1-0.7,3.2-0.9c4.1,0,7.5,3.4,7.5,7.5s-3.4,7.5-7.5,7.5c-2.1-0.2-1,0-3.2-0.9L73.1,76.8
		c1,0.5,1.7,1.5,2.4,2.4c2.1,3.6,0.8,8.2-2.7,10.2c-3.6,2.1-8.2,0.8-10.2-2.7c-0.8-1.9-0.5-0.9-0.8-3.3H38.3c0,1,0,0.4-0.2,1.9
		c-0.1,0.5-0.4,0.9-0.6,1.4c-2.1,3.6-6.7,4.8-10.2,2.7c-3.6-2.1-4.8-6.7-2.7-10.2c0.6-1,1.3-1.9,2.3-2.4L15.2,56.5
		c-2.2,0.9-1.1,0.6-3.2,1c-4.1,0-7.5-3.4-7.5-7.5s3.4-7.5,7.5-7.5l0,0c2.1,0.3,1,0,3.2,0.9l11.7-20.2c-1.8-1.5-1-0.7-2.4-2.3
		c-2.1-3.6-0.8-8.2,2.7-10.2c2.3-1,0.9-0.6,4.3-1c2.7,0.3,4.4,1.6,6,3.7c0.8,1.9,0.5,0.9,0.8,3.3h23.3c0-1,0-0.4,0.2-1.9
		c0.1-0.5,0.4-0.9,0.6-1.4C64.2,10.6,65.6,10.4,68.5,9.6z M52.8,74.1c-0.7,0.9-1.6,1.3-2.8,1.4c-1.3,0-1.9-0.5-2.8-1.4l-9.6,5.5
		c0.5,0.8,0.6,1.8,0.7,2.8h23.3c0.1-0.9,0.3-1.9,0.8-2.7L52.8,74.1z M59.3,67.1l-6.1,3.5c0.3,0.8,0.2,0.4,0.3,1.3
		c-0.1,0.9,0,0.5-0.3,1.2l9.7,5.6c1-1.4,0.4-0.7,1.9-2.1L59.3,67.1z M40.7,67.1l-5.5,9.6c0.8,0.6,1.5,1.2,2,2.1l9.6-5.5
		c-0.3-0.7-0.2-0.3-0.3-1.2c0.1-0.9,0-0.5,0.3-1.3L40.7,67.1z M18.1,54.1c-0.5,0.8-1.3,1.4-2,2l11.6,20.1c0.9-0.3,1.8-0.6,2.7-0.8
		l0,0v-11c-1.8-0.2-2.8-1.8-3-3.4c0.1-0.9,0-0.5,0.3-1.3L18.1,54.1z M81.8,54.2l-9.6,5.5c0.3,0.8,0.2,0.4,0.3,1.3
		c-0.1,1.7-1.2,3.3-3,3.4v11l0,0c0.9,0.1,1.9,0.3,2.8,0.8l11.6-20C82.9,55.8,82.4,54.8,81.8,54.2z M66.3,63.1l-6.1,3.5l5.5,9.6
		c1.5-0.6,0.6-0.3,2.8-0.7V64.4C67.5,64.4,66.9,63.8,66.3,63.1z M33.7,63.1c-0.6,0.7-1.2,1.2-2.2,1.3v11.1c1.3,0.1,0.7,0,1.8,0.2
		c0.1,0,0.7,0.3,1,0.4l5.5-9.6L33.7,63.1z M53.2,56.6c-2.2,0.9-1.1,0.7-3.2,0.9c-2.1-0.2-1,0-3.2-0.9l-5.6,9.7l6.1,3.5
		c0.7-0.9,1.6-1.2,2.7-1.3c1.3,0,1.8,0.5,2.7,1.3l6.1-3.5L53.2,56.6z M42.5,50.5h-11v7.1c1.8,0.2,2.8,1.8,3,3.5
		c-0.1,0.9,0,0.5-0.3,1.2l6.1,3.5l5.5-9.5C43.9,54.7,42.8,52.9,42.5,50.5z M68.5,50.5h-11c-0.1,2.8-1.5,3.9-3.3,5.7l5.5,9.5l6.1-3.5
		c-0.3-0.8-0.2-0.3-0.3-1.2c0.1-1.7,1.2-3.3,3-3.5V50.5z M80.6,50.5H69.5v7.1c1,0,1.6,0.6,2.2,1.3l9.7-5.6
		C80.5,51.2,80.7,52.1,80.6,50.5z M30.5,50.5h-11c-0.1,0.9-0.2,2-0.7,2.8l9.6,5.5c0.6-0.7,1.2-1.2,2.2-1.3V50.5z M59.7,34.2
		l-5.5,9.5c2,1.5,3,3.3,3.3,5.7h11v-7.1c-1.8-0.2-2.8-1.8-3-3.4c0.1-0.9,0-0.5,0.3-1.2L59.7,34.2z M28.3,41.2l-9.8,5.6
		c0.7,1.5,0.4,0.7,0.9,2.7h11v-7.1C29.5,42.4,28.9,41.8,28.3,41.2z M71.7,41.2c-0.6,0.7-1.2,1.2-2.2,1.3v7.1h11.1
		c0.2-1.6,0-0.7,0.8-2.7L71.7,41.2z M40.3,34.2l-6.1,3.5c0.3,0.8,0.2,0.3,0.3,1.2c-0.1,1.7-1.2,3.3-3,3.4v7.1h11
		c0.1-2.8,1.5-3.9,3.3-5.7L40.3,34.2z M27.7,23.8l-11.6,20c0.8,0.6,1.5,1.2,2,2.1l9.7-5.6c-0.3-0.8-0.2-0.4-0.3-1.3
		c0.1-1.7,1.2-3.3,3-3.5v-11l-0.4,0C29.2,24.5,28.5,24,27.7,23.8z M72.3,23.7c-0.9,0.3-1.8,0.7-2.8,0.7v11.1c1.8,0.2,2.8,1.8,3,3.5
		c-0.1,0.9,0,0.5-0.3,1.3l9.6,5.5c0.4-0.9,1.4-1.4,2.1-2.1c-1.9-3.3-3.8-6.7-5.8-10l-5.1-8.9L72.3,23.7z M47.3,30.2l-6.1,3.5
		l5.6,9.7c2.2-0.9,1.1-0.7,3.2-0.9c2.1,0.2,1,0,3.2,0.9l5.6-9.7l-6.1-3.5c-0.7,0.9-1.6,1.2-2.7,1.3C48.7,31.5,48.2,31,47.3,30.2z
		 M65.7,23.8l-5.5,9.6l6.1,3.5c0.6-0.7,1.2-1.2,2.2-1.3V24.5C67.5,24.5,66.6,24.1,65.7,23.8z M34.3,23.8c-1.6,0.6-0.7,0.3-2.8,0.8
		v11c1,0,1.6,0.7,2.2,1.3l6.1-3.5L34.3,23.8z M62.8,21.2l-9.6,5.5c0.3,0.7,0.2,0.3,0.3,1.2c-0.1,0.9,0,0.5-0.3,1.3l6.1,3.5l5.5-9.6
		C64.1,22.7,63.3,22.1,62.8,21.2z M37,21.1c-1,1.4-0.4,0.7-1.9,2.1l5.5,9.6l6.1-3.5c-0.3-0.8-0.2-0.4-0.3-1.3c0.1-0.9,0-0.5,0.3-1.2
		L37,21.1z M61.7,17.6H38.4c-0.1,0.9-0.3,1.9-0.8,2.7l9.6,5.6c0.7-0.9,1.6-1.3,2.8-1.4c1.3,0,1.9,0.5,2.8,1.4l9.6-5.5
		C61.8,19.5,61.7,18.5,61.7,17.6z"/>
</g>
</svg>
