<svg xmlns="http://www.w3.org/2000/svg" xmlns:xlink="http://www.w3.org/1999/xlink" version="1.1" x="0px" y="0px" viewBox="0 0 48 48" enable-background="new 0 0 48 48" xml:space="preserve"><g><path d="M24.1,25.1c-0.1-0.1-0.4-0.2-0.6-0.2l-1.3,0.1c-0.1,0-0.3,0-0.4-0.1l-0.9-0.5c-0.2-0.1-0.3-0.3-0.4-0.4l-0.2-0.7   c-0.1-0.3-0.4-0.5-0.7-0.5l-0.5,0c-0.2,0-0.4-0.1-0.6-0.3l-0.7-0.9c-0.1-0.2-0.4-0.3-0.6-0.3h-0.5c-0.1,0-0.2,0-0.3-0.1l-0.9-0.4   c-0.3-0.2-0.8-0.1-1,0.3l-1.3,2.2c-0.1,0.1-0.1,0.2-0.2,0.2l-0.5,0.3c-0.2,0.1-0.3,0.4-0.3,0.6v1.4c0,0.2,0.1,0.5,0.3,0.6l1,0.7   c0.2,0.1,0.3,0.4,0.3,0.6v0.4c0,0.3,0.1,0.5,0.4,0.6l1.2,0.7c0.2,0.1,0.3,0.3,0.4,0.5l0.5,3.1c0,0.1,0,0.2,0,0.4l-0.4,1.1   c-0.1,0.4,0,0.7,0.4,0.9v0c0.3,0.2,0.5,0.5,0.4,0.8l-0.2,1.1c0,0.2,0,0.5,0.2,0.7l1.7,1.8c0.1,0.2,0.3,0.2,0.5,0.2H19   c0.4,0,0.8-0.3,0.8-0.8v-1.3c0-0.2,0-0.3-0.1-0.4L19,36.6c-0.3-0.4-0.1-0.9,0.3-1.1l0.7-0.4c0.1-0.1,0.2-0.1,0.3-0.2l1.5-2.1   c0.1-0.1,0.1-0.3,0.1-0.5l-0.1-1.5l0.7,0.2c0.3,0.1,0.6,0,0.8-0.3l0.5-0.6c0.1-0.1,0.2-0.3,0.2-0.5v-1.8c0-0.1,0-0.2,0.1-0.3   l0.6-1.2c0.1-0.3,0.1-0.6-0.1-0.9L24.1,25.1z"/><path d="M45.8,13.3h-5C37.6,5.5,30.1,0,21.2,0C9.5,0,0,9.5,0,21.2c0,11.7,9.5,21.2,21.2,21.2c1.4,0,2.8-0.2,4.1-0.4v3.9   c0,1.2,1,2.2,2.2,2.2h18.3c1.2,0,2.2-1,2.2-2.2V15.4C48,14.2,47,13.3,45.8,13.3z M25.3,15.4v24.7c-1.3,0.3-2.7,0.5-4.1,0.5   c-10.7,0-19.4-8.7-19.4-19.4c0-2.3,0.4-4.6,1.2-6.6l1.1,2.9c0.1,0.2,0.2,0.4,0.4,0.5l2.4,1.3c0.5,0.3,1.2,0,1.4-0.6l0.5-2   c0.1-0.4,0.5-0.7,0.9-0.7h2.2c0.2,0,0.3,0,0.4-0.1l2.4-1.3c0.3-0.2,0.5-0.5,0.5-0.8v-0.1c0-0.3,0.2-0.6,0.4-0.8l2.9-2   c0.1-0.1,0.2-0.1,0.3-0.1l2.2-0.7c0.5-0.2,0.8-0.8,0.6-1.3c-0.1-0.3-0.1-0.6,0-0.8l0.7-1.3c0.3-0.5,0.1-1.1-0.5-1.3l-3-1.3   c-0.1-0.1-0.2-0.1-0.4-0.1h-1.7c-0.2,0-0.4,0.1-0.6,0.2l-1.7,1.2c-0.2,0.2-0.5,0.2-0.8,0.1l-2.7-0.8c0,0,0,0,0,0   c3-1.9,6.5-3,10.3-3c4.8,0,9.2,1.8,12.6,4.7l0,0l-0.1,0.1c-0.4,0.3-0.5,0.9-0.2,1.3l0.2,0.4c0.3,0.5,0.2,1.1-0.3,1.3l-0.3,0.2   c-0.6,0.3-0.7,1.2-0.1,1.6l0.8,0.6c0.1,0,0.1,0.1,0.2,0.1l2.8,1.2c0.4,0.2,0.8,0.1,1.1-0.2c0.2-0.2,0.4-0.3,0.7-0.3   c0.1,0.2,0.2,0.5,0.3,0.7H27.5C26.3,13.3,25.3,14.2,25.3,15.4z M38.3,15.3c0,0.4-0.3,0.7-0.7,0.7h-1.8c-0.4,0-0.7-0.3-0.7-0.7   c0-0.4,0.3-0.7,0.7-0.7h1.8C38,14.5,38.3,14.9,38.3,15.3z M36.7,47c-0.8,0-1.5-0.7-1.5-1.5c0-0.8,0.7-1.5,1.5-1.5   c0.8,0,1.5,0.7,1.5,1.5C38.2,46.3,37.5,47,36.7,47z M45.1,42.7H28.2V17.4h16.9V42.7z"/><circle cx="36.7" cy="26.5" r="2.6"/><path d="M36.7,30.7c-3.1,0-5.7,2.4-6,5.5h12.1C42.4,33.1,39.8,30.7,36.7,30.7z"/></g>
</svg>