<?xml version="1.0" encoding="utf-8"?>
<!-- Generator: Adobe Illustrator 21.1.0, SVG Export Plug-In . SVG Version: 6.00 Build 0)  -->
<svg version="1.1" id="Layer_1" xmlns="http://www.w3.org/2000/svg" xmlns:xlink="http://www.w3.org/1999/xlink" x="0px" y="0px"
	 viewBox="0 0 87.2 100" style="enable-background:new 0 0 87.2 100;" xml:space="preserve">
<style type="text/css">
	.st0{fill:#4578CE;}
</style>
<g>
	<path class="st0" d="M20.8,34.9v0.7c0,0.7-0.4,1.4-1,1.8l-0.6,0.3l6.4,3.7v-0.7c0-0.7,0.4-1.4,1-1.8l0.6-0.3L20.8,34.9z"/>
	<path class="st0" d="M59.4,60.3c0.6-0.4,1-1,1-1.8v-0.7V42.1v-0.7c0-0.7-0.4-1.4-1-1.8l-0.6-0.3l-13.6-7.9l-0.6-0.2
		c-0.3-0.2-0.7-0.3-1-0.3c-0.4,0-0.7,0.1-1,0.3L42,31.6l-13.6,7.8l-0.6,0.3c-0.6,0.4-1,1-1,1.8v0.7v15.7v0.7c0,0.7,0.4,1.4,1,1.8
		l0.6,0.4l13.5,7.8l0.6,0.4c0.3,0.2,0.7,0.3,1,0.3c0.4,0,0.7-0.1,1-0.3l0.6-0.3l13.6-7.8L59.4,60.3z M56.3,44.5v11v1.8l-1.6,0.9
		l-9.5,5.5l-1.6,1L42,63.8l-9.5-5.5l-1.6-0.9v-1.9v-11v-1.9l1.6-0.9l9.5-5.5l1.6-0.9l1.6,0.9l9.5,5.5l1.6,0.9V44.5z"/>
	<path class="st0" d="M68.1,37.7l-0.6-0.3c-0.6-0.4-1-1-1-1.8v-0.7l-6.3,3.6l0.6,0.3c0.6,0.4,1,1,1,1.8v0.7L68.1,37.7z"/>
	<path class="st0" d="M86.2,24.2l-0.6-0.3L79,20.1l-0.5-0.3c-0.3-0.2-0.7-0.3-1-0.3c-0.4,0-0.7,0.1-1,0.3L76,20.1L69.3,24l-0.5,0.3
		c-0.6,0.4-1,1-1,1.8v0.6v7.6V35c0,0.7,0.4,1.4,1,1.8l0.6,0.3l6.6,3.8l0.5,0.3c0.3,0.2,0.7,0.3,1,0.3c0.4,0,0.7-0.1,1-0.3l0.5-0.3
		l6.7-3.8l0.5-0.3c0.6-0.4,1-1,1-1.8v-0.6v-7.6V26C87.2,25.2,86.8,24.6,86.2,24.2z M84.2,28.4v4.1v1.8l-1.6,0.8L79,37.2l-1.5,0.9
		L76,37.2l-3.5-2l-1.6-0.9v-1.9v-4v-1.8l1.5-0.9l3.6-2.1l1.5-0.9l1.5,0.9l3.5,2l1.6,0.9L84.2,28.4L84.2,28.4z"/>
	<path class="st0" d="M43.6,70.6c-0.4,0-0.7-0.1-1-0.3L42,70v7.3l0.6-0.3c0.3-0.2,0.7-0.3,1-0.3c0.4,0,0.7,0.1,1,0.3l0.6,0.3V70
		l-0.6,0.3C44.3,70.5,44,70.6,43.6,70.6z"/>
	<path class="st0" d="M9.7,42.9c-0.4,0-0.7-0.1-1-0.3l-0.5-0.3v15.4l0.6-0.3c0.3-0.2,0.7-0.3,1-0.3s0.7,0.1,1,0.3l0.4,0.3V42.3
		l-0.5,0.3C10.4,42.8,10.1,42.9,9.7,42.9z"/>
	<path class="st0" d="M77.5,57.1c0.4,0,0.7,0.1,1,0.3l0.5,0.3V42.3l-0.5,0.3c-0.3,0.2-0.7,0.3-1,0.3c-0.4,0-0.7-0.1-1-0.3L76,42.3
		v15.3l0.5-0.3C76.8,57.2,77.1,57.1,77.5,57.1z"/>
	<path class="st0" d="M66.4,74.7v-0.6l-13.3,7.7l0.5,0.3c0.6,0.4,1,1,1,1.8v0.6l13.3-7.7l-0.5-0.3C66.8,76.1,66.4,75.5,66.4,74.7z"
		/>
	<path class="st0" d="M52.3,82.9l-0.5-0.3l-6.6-3.8l-0.6-0.4c-0.3-0.2-0.7-0.3-1-0.3c-0.4,0-0.7,0.1-1,0.3L42,78.7l-6.6,3.8
		l-0.5,0.3c-0.6,0.4-1,1-1,1.8v0.6v7.7v0.6c0,0.7,0.4,1.4,1,1.8l0.5,0.3l6.6,3.8l0.6,0.3c0.3,0.2,0.7,0.3,1,0.3c0.4,0,0.7-0.1,1-0.3
		l0.6-0.3l6.6-3.8l0.5-0.3c0.6-0.4,1-1,1-1.8v-0.6v-7.7v-0.6C53.4,83.9,53,83.2,52.3,82.9z M50.3,87v4.2V93l-1.5,0.9l-3.5,2
		l-1.6,0.9l-1.6-0.9l-3.5-2L37.1,93v-1.8V87v-1.8l1.5-0.9l3.5-2l1.6-0.9l1.6,0.9l3.5,2l1.5,0.9V87z"/>
	<path class="st0" d="M86.2,63.3L85.7,63l-6.6-3.8l-0.5-0.3c-0.3-0.2-0.7-0.3-1-0.3c-0.4,0-0.7,0.1-1,0.3l-0.5,0.3L69.4,63l-0.6,0.3
		c-0.6,0.4-1,1-1,1.8v0.7v7.6V74c0,0.7,0.4,1.4,1,1.8l0.5,0.3L76,80l0.5,0.3c0.3,0.2,0.7,0.3,1,0.3c0.4,0,0.7-0.1,1-0.3L79,80
		l6.6-3.8l0.6-0.3c0.6-0.4,1-1,1-1.8v-0.7v-7.6v-0.6C87.2,64.4,86.8,63.7,86.2,63.3z M84.1,67.5v4.1v1.9l-1.6,0.9l-3.5,2l-1.6,0.9
		l-1.5-0.9l-3.6-2.1l-1.5-0.9v-1.8v-4.1v-1.9l1.6-0.9l3.5-2l1.5-0.9l1.6,0.9l3.6,2.1l1.5,0.9V67.5z"/>
	<path class="st0" d="M20.8,74.2v0.6c0,0.7-0.4,1.4-1,1.8l-0.5,0.3l13.3,7.6v-0.6c0-0.7,0.4-1.4,1-1.8l0.5-0.3L20.8,74.2z"/>
	<path class="st0" d="M19.5,73.4v-7.6v-0.7c0-0.7-0.4-1.4-1-1.8L17.9,63l-6.6-3.8l-0.4-0.3c-0.3-0.2-0.7-0.3-1-0.3s-0.7,0.1-1,0.3
		l-0.6,0.3L1.6,63l-0.5,0.3c-0.6,0.4-1,1-1,1.8v0.6v7.6V74c0,0.7,0.4,1.4,1,1.8l0.6,0.3l6.5,3.8l0.6,0.3c0.3,0.2,0.7,0.3,1,0.3
		s0.7-0.1,1-0.3l0.4-0.3l6.7-3.9l0.5-0.3c0.6-0.4,1-1,1-1.8v-0.5H19.5z M16.4,67.6v4.1v1.8l-1.5,0.9l-3.7,2.1l-1.5,0.8l-1.6-0.9
		l-3.4-2l-1.6-0.9v-1.9v-4.1v-1.8l1.5-0.9l3.5-2l1.6-0.9l1.5,0.8l3.6,2.1l1.6,0.9V67.6z"/>
	<path class="st0" d="M20.8,25.2v0.6l13.3-7.7l-0.5-0.2c-0.6-0.4-1-1-1-1.8v-0.6l-13.3,7.7l0.5,0.3C20.4,23.8,20.8,24.5,20.8,25.2z"
		/>
	<path class="st0" d="M34.9,17.1l0.5,0.3l6.6,3.8l0.6,0.4c0.3,0.2,0.7,0.3,1,0.3c0.4,0,0.7-0.1,1-0.3l0.6-0.3l6.6-3.8l0.5-0.3
		c0.6-0.4,1-1,1-1.8v-0.6V7.1V6.5c0-0.7-0.4-1.4-1-1.8l-0.5-0.3l-6.6-3.8l-0.6-0.3c-0.3-0.2-0.7-0.3-1-0.3c-0.4,0-0.7,0.1-1,0.3
		L42,0.7l-6.5,3.8L35,4.8c-0.6,0.4-1,1-1,1.8v0.6v7.7v0.6C33.9,16.1,34.3,16.8,34.9,17.1z M37,13V8.9V7.1l1.5-0.9l3.5-2l1.7-1
		l1.6,0.9l3.5,2L50.3,7v1.8V13v1.8l-1.5,0.9l-3.6,2.1l-1.6,0.8l-1.6-1l-3.5-2L37,14.7V13z"/>
	<path class="st0" d="M1,36.6l0.5,0.3l6.7,3.8L8.7,41c0.3,0.2,0.7,0.3,1,0.3c0.4,0,0.7-0.1,1-0.3l0.5-0.3l6.6-3.8l0.6-0.3
		c0.6-0.4,1-1,1-1.8v-0.7v-7.6V26c0-0.7-0.4-1.4-1-1.8l-0.5-0.3L11.2,20l-0.5-0.3c-0.3-0.2-0.7-0.3-1-0.3c-0.4,0-0.7,0.1-1,0.3
		L8.2,20l-6.6,3.9L1,24.2c-0.6,0.4-1,1-1,1.8v0.7v7.6v0.6C0,35.6,0.4,36.3,1,36.6z M3,32.5v-4.1v-1.9l1.6-0.9l3.5-2l1.5-0.9l1.5,0.9
		l3.6,2.1l1.5,0.9v1.8v4v1.9l-1.6,0.9l-3.5,2l-1.5,0.9l-1.5-0.9l-3.5-2l-1.5-0.9v-1.8H3z"/>
	<path class="st0" d="M66.4,25.8v-0.6c0-0.7,0.4-1.4,1-1.8l0.5-0.3l-13.3-7.6v0.6c0,0.7-0.4,1.4-1,1.8l-0.5,0.3L66.4,25.8z"/>
</g>
</svg>
