<svg xmlns="http://www.w3.org/2000/svg" xmlns:xlink="http://www.w3.org/1999/xlink" version="1.1" x="0px" y="0px" viewBox="0 0 160 160" style="enable-background:new 0 0 160 160;" xml:space="preserve"><g><path d="M151,80.6v26.3l-27.3,16.1V86.5c0-6.4-3.3-12.3-8.5-15.7l3.6-1c0.5-0.1,0.9-0.6,0.9-1.1v-4.9l-0.3-0.2   c-2.1-1.6-3.5-4.1-3.7-6.7c-0.1-0.9-0.2-1.7-0.2-2h-0.8c-0.8,0-1.5-0.6-1.6-1.3l-0.6-4c-0.2-1.2,0.8-2.3,2-2.3l0.2-7.7   c0-4.7,3.9-8.5,8.7-8.5h5.6c4.8,0,8.7,3.8,8.7,8.5l0.2,7.7c1.2,0,2.2,1.1,2,2.3l-0.6,4c-0.1,0.8-0.8,1.3-1.6,1.3h-0.8   c-0.1,0.4-0.1,1.2-0.2,2c-0.2,2.6-1.6,5.1-3.7,6.7l-0.3,0.2v4.9c0,0.5,0.4,1,0.9,1.1l11.2,3.2C148.4,73.7,151,76.9,151,80.6z"/><path d="M47.5,49.4l-0.6,4c-0.1,0.8-0.8,1.3-1.6,1.3h-0.8c-0.1,0.4-0.1,1.2-0.2,2c-0.2,2.6-1.6,5.1-3.7,6.7l-0.3,0.2v4.8   c0,0.5,0.4,1,0.9,1.1l2.6,0.8c-5.4,3.3-9,9.4-9,16.1V122L9,106.7V80.5c0-3.7,2.6-6.9,6.1-7.6l7.1-2l4.1-1.2   c0.5-0.1,0.9-0.6,0.9-1.1v-4.8L27,63.5c-2.1-1.6-3.5-4.1-3.7-6.7c-0.1-0.9-0.1-1.6-0.2-2h-0.8c-0.8,0-1.5-0.6-1.6-1.3l-0.6-4   c-0.2-1.2,0.8-2.3,2-2.3l0.2-7.7c0-4.7,3.9-8.6,8.7-8.6h5.6c4.8,0,8.7,3.8,8.7,8.6l0.2,7.7C46.7,47.1,47.6,48.2,47.5,49.4z"/><polygon points="82.6,97 79.2,90.1 75.8,97 68.2,98 73.7,103.4 72.4,110.9 79.2,107.3 86,110.9 84.7,103.4 90.2,98  "/><path d="M108.4,71.1l-15.3-4.4V63c3.4-3.1,5.5-7.3,5.9-11.9c2.1-0.8,3.6-2.7,4-5l1-6.1c0.3-2-0.3-4.1-1.6-5.6   c-0.4-0.5-0.9-0.9-1.4-1.3l-0.2-8.9c0-9.3-7.7-16.9-17.2-16.9H75c-9.5,0-17.2,7.6-17.2,16.9l-0.2,8.9c-0.5,0.3-1,0.8-1.4,1.3   C54.8,36,54.2,38,54.5,40l1,6.1c0.4,2.3,1.9,4.1,4,4.9c0.4,4.6,2.6,8.8,5.9,11.9v3.8L60.7,68l-10.6,3c-7.1,1.5-12.3,8-12.3,15.4   v41.9l2,1.2L79.4,153l39.3-22.5l2-1.2V86.5C120.7,79.1,115.5,72.6,108.4,71.1z M63.4,50.6c-0.1-1.3-0.2-2.5-0.3-3.1h-1.3   c-1.2,0-2.2-0.9-2.4-2l-1-6.1c-0.3-1.7,1-3.2,2.7-3.4v1.5c0,1,1.2,1.4,1.8,0.6l1.4-1.8c2.3-3.1,3.8-6.8,4.2-10.6   c0.2-1.4,1-2.7,2.2-3.5c1-0.7,1.9-1.6,2.5-2.8l0.1-0.1c2.5,2.6,6,4.1,9.6,4.1c1.8,0,3.5,0.6,4.8,1.6c1.4,1,2.4,2.4,2.9,4.1   c0.7,2.5,1.8,4.9,3.4,7l1.5,2c0.6,0.8,1.8,0.4,1.8-0.6V36c1.7,0.2,2.9,1.7,2.7,3.4l-1,6.1c-0.2,1.2-1.2,2-2.4,2h-1.3   c-0.1,0.6-0.2,1.8-0.3,3.1c-0.3,4-2.4,7.7-5.6,10.1l-0.4,0.3v7.3c0,0.1,0,0.1,0,0.2l-9.7,5.9l-10-5.9c0-0.1,0-0.1,0-0.2v-7.3   L69,60.8C65.8,58.3,63.8,54.6,63.4,50.6z M72.6,136.7l-4.6-7.5l-8.6,2.4l5.1-12.8c3.6,3,8.1,5,13.1,5.4L72.6,136.7z M79.2,121.2   c-10.9,0-19.8-8.8-19.8-19.6c0-10.8,8.8-19.6,19.8-19.6C90.1,82,99,90.7,99,101.6C99,112.4,90.1,121.2,79.2,121.2z M90.5,129.2   l-4.6,7.5l-5-12.6c5-0.4,9.5-2.3,13.1-5.4l5.1,12.8L90.5,129.2z"/></g>
</svg>